<svg width="25" height="17" viewBox="0 0 25 17" fill="none" xmlns="http://www.w3.org/2000/svg">
<path d="M3.13502 16.5394C1.31059 17.5933 0 16.7151 0 15.153C0 13.4902 0 8.50072 0 8.50072C0 8.50072 0 3.51127 0 1.8484C0 0.286352 1.30978 -0.591842 3.13502 0.461991C5.97654 2.10291 14.5003 7.0273 14.5003 7.0273C15.6336 7.68188 15.6336 9.31874 14.5003 9.97332C14.5003 9.97413 5.97654 14.8985 3.13502 16.5394Z" fill="#00C1FF"/>
<path d="M12.5169 16.538C10.6924 17.5918 9.38184 16.7136 9.38184 15.1516C9.38184 13.4887 9.38184 8.49925 9.38184 8.49925C9.38184 8.49925 9.38184 3.50981 9.38184 1.84693C9.38184 0.284888 10.6916 -0.593306 12.5169 0.460526C15.2958 2.06567 23.6325 6.88191 23.6325 6.88191C24.8773 7.60073 24.8773 9.39777 23.6325 10.1166C23.6317 10.1166 15.2958 14.9328 12.5169 16.538Z" fill="#BCEC30"/>
<mask id="mask0_1_1019" style="mask-type:alpha" maskUnits="userSpaceOnUse" x="9" y="0" width="16" height="17">
<path d="M12.5169 16.538C10.6924 17.5918 9.38184 16.7136 9.38184 15.1516C9.38184 13.4887 9.38184 8.49925 9.38184 8.49925C9.38184 8.49925 9.38184 3.50981 9.38184 1.84693C9.38184 0.284888 10.6916 -0.593306 12.5169 0.460526C15.2958 2.06567 23.6325 6.88191 23.6325 6.88191C24.8773 7.60073 24.8773 9.39777 23.6325 10.1166C23.6317 10.1166 15.2958 14.9328 12.5169 16.538Z" fill="#6FE4FF"/>
</mask>
<g mask="url(#mask0_1_1019)">
<g filter="url(#filter0_f_1_1019)">
<path d="M3.13551 16.5394C1.31108 17.5933 0.000488281 16.7151 0.000488281 15.153C0.000488281 13.4902 0.000488281 8.50072 0.000488281 8.50072C0.000488281 8.50072 0.000488281 3.51127 0.000488281 1.8484C0.000488281 0.286352 1.31027 -0.591842 3.13551 0.461991C5.97703 2.10291 14.5008 7.0273 14.5008 7.0273C15.6341 7.68188 15.6341 9.31874 14.5008 9.97332C14.5008 9.97413 5.97703 14.8985 3.13551 16.5394Z" fill="#99D100"/>
</g>
</g>
<defs>
<filter id="filter0_f_1_1019" x="-8.92896" y="-8.92799" width="33.209" height="34.8574" filterUnits="userSpaceOnUse" color-interpolation-filters="sRGB">
<feFlood flood-opacity="0" result="BackgroundImageFix"/>
<feBlend mode="normal" in="SourceGraphic" in2="BackgroundImageFix" result="shape"/>
<feGaussianBlur stdDeviation="4.46473" result="effect1_foregroundBlur_1_1019"/>
</filter>
</defs>
</svg>
